<svg width="26" height="26" viewBox="0 0 26 26" fill="none" xmlns="http://www.w3.org/2000/svg">
<path d="M10.5083 8.01657C10.7792 8.01657 10.9958 8.1249 11.1042 8.34157L11.9167 9.80407C12.025 10.0207 12.025 10.2374 11.9167 10.4541L11.3208 11.5374C11.3208 11.5374 11.5375 12.7291 12.5125 13.7041C13.4875 14.6791 14.6792 14.8957 14.6792 14.8957L16.0333 14.5707C16.25 14.4624 16.4667 14.4624 16.6833 14.5707L18.2 15.3832C18.4167 15.4916 18.525 15.7082 18.525 15.9791V17.7124C18.525 18.5791 17.7125 19.2291 16.9 18.9582C15.2208 18.3624 12.5667 17.2791 10.8875 15.5999C9.20832 13.9207 8.12498 11.2666 7.52915 9.5874C7.25832 8.7749 7.85415 7.9624 8.77498 7.9624H10.5083V8.01657Z" stroke="#808080" stroke-width="2"/>
<path d="M13.3792 3.0874C7.85417 3.0874 3.35834 7.58324 3.35834 13.1082C3.35834 15.0582 3.9 16.8457 4.875 18.3624L3.35834 23.0749L7.85417 21.4499C9.425 22.4791 11.3208 23.1291 13.3792 23.1291C18.9042 23.1291 23.4 18.6332 23.4 13.1082C23.4 7.58324 18.9042 3.0874 13.3792 3.0874Z" stroke="#808080" stroke-width="2" stroke-linejoin="round"/>
</svg>
